# xmcd CD database file
#
# Track frame offsets:
#	187
#	27690
#	58487
#	78192
#	108430
#	125325
#	141577
#	160060
#	189372
#	216780
#
# Disc length: 3368 seconds
#
# Revision: 0
# Processed by: cddbd v1.5.2PL0 Copyright (c) Steve Scherf et al.
# Submitted via: CDex 1.70beta2
#
DISCID=910d260a
DTITLE=Mikio Masuda - Blue Dumplings
DYEAR=1998
DGENRE=Jazz
TTITLE0=Stardust
TTITLE1=I'll Close My Eyes
TTITLE2=Yellow In Green
TTITLE3=Blue Dumplings
TTITLE4=Someday My Prince Will Come
TTITLE5=Trinkle, Trinkle
TTITLE6=My One And Only Love
TTITLE7=It Could Happen To You
TTITLE8=You Don't Know What Love Is
TTITLE9=Bag's Groove
EXTD=YEAR: 1998
EXTT0=
EXTT1=
EXTT2=
EXTT3=
EXTT4=
EXTT5=
EXTT6=
EXTT7=
EXTT8=
EXTT9=
PLAYORDER=
